<?xml version="1.0" standalone="no"?>
<!DOCTYPE svg PUBLIC "-//W3C//DTD SVG 20010904//EN"
 "http://www.w3.org/TR/2001/REC-SVG-20010904/DTD/svg10.dtd">
<svg version="1.0" xmlns="http://www.w3.org/2000/svg"
 width="127.000000pt" height="158.000000pt" viewBox="0 0 127.000000 158.000000"
 preserveAspectRatio="xMidYMid meet">

<g transform="translate(0.000000,158.000000) scale(0.100000,-0.100000)"
fill="#000000" stroke="none">
<path d="M520 1549 c-14 -4 -19 -7 -12 -8 18 -1 15 -21 -4 -21 -10 0 -14 -5
-10 -16 3 -9 2 -12 -5 -9 -5 4 -17 1 -26 -7 -14 -11 -16 -11 -8 2 6 9 -4 6
-29 -8 -20 -12 -35 -18 -31 -13 10 16 -12 21 -25 6 -7 -8 -16 -12 -21 -9 -5 3
-9 -1 -9 -9 0 -8 -11 -22 -25 -31 -14 -9 -25 -12 -25 -6 0 5 5 10 12 10 6 0 9
2 6 5 -8 9 -38 -6 -32 -16 3 -5 -2 -9 -10 -9 -8 0 -18 -5 -22 -12 -5 -8 -2 -9
11 -4 18 7 18 6 1 -13 -10 -11 -23 -18 -29 -14 -6 4 -8 0 -4 -10 4 -11 1 -17
-8 -17 -8 0 -15 -7 -15 -16 0 -10 -5 -14 -16 -10 -8 3 -12 2 -9 -4 3 -6 1 -10
-5 -10 -6 0 -8 -4 -5 -10 3 -5 0 -10 -8 -10 -8 0 -21 -8 -28 -17 -13 -16 -12
-17 2 -5 14 10 18 10 23 -3 3 -9 2 -13 -4 -10 -6 4 -10 -6 -10 -22 0 -22 -2
-25 -10 -13 -8 12 -10 9 -11 -12 -2 -40 -3 -46 -10 -53 -4 -3 -4 14 -2 37 3
24 10 46 17 50 8 6 8 8 -1 8 -15 0 -35 -35 -26 -44 3 -3 2 -6 -4 -6 -12 0 -43
-82 -70 -180 -13 -49 -17 -103 -17 -220 1 -134 5 -168 27 -252 27 -103 74
-218 88 -218 5 0 8 -3 7 -7 -4 -13 22 -53 34 -53 7 0 7 4 -1 13 -6 8 -8 17 -4
20 3 4 1 7 -6 7 -8 0 -11 8 -8 20 3 11 1 18 -3 15 -15 -9 -23 16 -10 28 10 9
11 9 5 -3 -5 -8 -4 -11 0 -7 16 14 14 36 -3 30 -9 -4 -13 -2 -9 4 4 6 0 19 -9
27 -8 9 -10 16 -4 16 7 0 7 7 -1 23 -12 21 -11 21 6 7 11 -9 16 -10 11 -2 -4
7 0 19 9 28 12 12 13 19 4 30 -13 16 -4 48 11 39 5 -3 10 -3 10 0 0 10 -28 35
-39 35 -6 0 -11 10 -11 21 0 19 3 18 30 -12 16 -19 28 -40 25 -48 -3 -8 0 -11
9 -8 10 4 12 0 8 -15 -5 -21 -5 -21 -24 1 -10 13 -18 18 -18 13 0 -6 5 -14 11
-17 6 -4 8 -13 5 -21 -3 -7 3 -21 12 -31 9 -11 13 -12 7 -3 -9 13 -8 13 8 1
16 -13 16 -15 1 -32 -10 -11 -12 -19 -6 -19 6 0 9 -6 6 -14 -3 -8 -1 -23 5
-34 7 -13 7 -23 -2 -32 -9 -9 -7 -9 10 1 12 7 19 17 16 23 -3 5 -1 6 5 2 15
-9 15 -12 -4 -30 -9 -9 -11 -16 -4 -16 6 0 8 -5 4 -12 -4 -7 -3 -8 5 -4 6 4 9
11 6 16 -3 4 2 13 9 19 11 9 16 9 22 0 4 -8 3 -9 -4 -5 -8 5 -12 -2 -12 -18 0
-14 6 -26 13 -26 18 0 38 -15 40 -31 4 -23 18 -40 28 -33 5 3 9 2 8 -3 -4 -24
2 -53 11 -48 6 3 10 1 10 -5 0 -6 5 -8 10 -5 6 3 10 0 10 -8 0 -18 17 -25 53
-21 18 2 27 -2 27 -12 0 -18 8 -18 26 0 9 9 10 17 4 21 -5 3 -10 16 -9 28 l0
22 9 -23 c13 -31 22 -27 16 8 -2 17 0 28 5 24 5 -3 6 -10 3 -16 -4 -6 -2 -8 4
-5 5 4 9 15 7 25 -1 9 4 29 11 44 8 15 14 33 13 40 0 7 -4 4 -9 -7 -7 -16 -9
-17 -9 -3 -1 9 3 19 9 23 5 3 0 15 -12 27 -14 14 -18 23 -10 26 15 5 16 42 1
42 -7 0 -9 10 -5 26 5 17 3 23 -4 19 -6 -3 -10 3 -10 14 0 12 -3 20 -8 18 -4
-1 -7 3 -7 8 0 6 4 9 8 7 5 -1 5 3 1 9 -3 6 0 15 7 20 9 6 10 9 2 9 -6 0 -15
-4 -18 -10 -3 -5 -11 -10 -16 -10 -6 0 -7 5 -4 10 4 6 1 9 -6 8 -6 -2 -14 3
-17 11 -2 8 0 11 6 7 12 -7 10 20 -3 31 -4 4 -5 2 -1 -4 4 -8 1 -13 -9 -13
-13 0 -14 4 -5 20 6 11 7 20 3 20 -4 0 -2 5 5 12 7 7 12 17 12 23 0 6 -3 7 -8
0 -4 -5 -16 -17 -27 -25 -15 -11 -17 -11 -8 0 10 11 9 18 -5 34 -17 21 -17 21
4 3 20 -17 22 -17 28 -1 6 15 -26 59 -35 49 -2 -2 -4 37 -5 86 0 49 3 84 8 77
4 -7 5 -22 2 -33 -4 -18 -4 -18 6 -3 7 12 8 24 1 37 -6 10 -7 21 -3 25 3 4 -2
4 -13 1 -18 -6 -18 -5 1 7 12 7 19 19 17 26 -3 6 0 12 5 12 5 0 8 15 6 32 -4
32 -4 32 11 10 20 -28 40 -28 59 0 25 35 20 94 -9 124 -18 18 -23 29 -16 38 6
7 8 22 4 34 -3 13 -1 22 6 22 7 0 9 -6 5 -12 -4 -7 4 -3 16 9 21 19 22 24 9
39 -9 12 -9 15 -1 10 8 -5 12 -1 13 11 0 16 1 16 8 -2 5 -11 7 -23 5 -27 -3
-4 0 -9 5 -12 5 -4 8 5 6 19 -2 20 0 23 11 14 10 -8 14 -8 14 0 0 6 3 10 8 8
4 -1 9 3 10 8 2 6 8 16 14 23 10 12 -2 16 -42 13 -10 0 -11 1 -2 5 6 3 12 15
11 27 0 21 -1 21 -8 3 -7 -19 -8 -18 -14 4 -3 13 -4 26 -2 29 3 2 5 -2 5 -9 0
-9 5 -7 14 6 11 14 14 15 14 4 -3 -40 3 -60 17 -60 8 0 15 5 15 11 0 5 -6 7
-12 3 -9 -5 -8 -2 1 9 12 15 17 16 34 4 19 -13 22 -11 37 17 8 17 19 30 23 28
5 -2 15 5 22 15 17 23 0 47 -28 39 -10 -2 -16 -2 -13 1 3 3 -3 13 -12 22 -10
9 -11 12 -3 6 11 -8 13 -6 9 6 -5 14 0 16 27 14 27 -1 32 1 27 14 -3 9 -10 19
-14 22 -5 3 -11 15 -12 25 -3 19 -36 34 -36 16 0 -10 -92 -12 -100 -2 -3 3
-16 3 -30 -1z m102 -35 c-9 -52 -8 -101 2 -114 6 -9 1 -7 -11 3 -13 12 -19 25
-15 35 5 14 3 15 -9 5 -13 -10 -15 -8 -15 12 0 13 3 22 8 19 4 -3 15 7 24 22
15 22 15 27 3 36 -12 8 -12 9 1 5 8 -2 14 -13 12 -23z m-115 -136 c-3 -8 -6
-5 -6 6 -1 11 2 17 5 13 3 -3 4 -12 1 -19z m5 -40 c-9 -9 -15 -9 -24 1 -11 10
-10 11 5 6 10 -5 17 -2 17 6 0 7 3 9 7 6 4 -4 1 -13 -5 -19z m19 -65 c13 -16
12 -17 -3 -4 -17 13 -22 21 -14 21 2 0 10 -8 17 -17z m-31 -69 c0 -8 -19 -13
-24 -6 -3 5 1 9 9 9 8 0 15 -2 15 -3z m-386 -105 c-7 -13 -43 -17 -38 -5 2 6
13 12 24 12 10 0 17 -3 14 -7z m0 -434 c-4 -8 -8 -15 -10 -15 -2 0 -4 7 -4 15
0 8 4 15 10 15 5 0 7 -7 4 -15z m306 -5 c0 -5 -2 -10 -4 -10 -3 0 -8 5 -11 10
-3 6 -1 10 4 10 6 0 11 -4 11 -10z m-286 -16 c3 -8 2 -12 -4 -9 -6 3 -10 10
-10 16 0 14 7 11 14 -7z m-40 -20 c3 -8 2 -12 -4 -9 -6 3 -10 10 -10 16 0 14
7 11 14 -7z m426 -362 c0 -5 -7 -9 -15 -9 -8 0 -15 4 -15 9 0 4 7 8 15 8 8 0
15 -4 15 -8z"/>
<path d="M591 1467 c-8 -10 -7 -14 2 -14 8 0 14 6 14 14 0 7 -1 13 -2 13 -2 0
-8 -6 -14 -13z"/>
<path d="M732 1484 c10 -10 20 -16 22 -13 3 3 -5 11 -17 18 -21 13 -21 12 -5
-5z"/>
<path d="M775 1470 c4 -6 11 -8 16 -5 14 9 11 15 -7 15 -8 0 -12 -5 -9 -10z"/>
<path d="M595 1270 c-3 -5 3 -10 14 -10 12 0 21 5 21 10 0 6 -6 10 -14 10 -8
0 -18 -4 -21 -10z"/>
<path d="M712 1088 c-28 -36 -20 -119 14 -132 39 -15 71 74 44 125 -12 22 -43
25 -58 7z"/>
<path d="M430 735 c-30 -36 209 -54 285 -20 47 20 33 31 -22 16 -52 -15 -170
-13 -215 3 -30 11 -40 11 -48 1z"/>
<path d="M144 409 c-4 -7 -3 -9 4 -5 6 3 13 -2 15 -11 4 -16 5 -16 6 -1 1 21
-15 32 -25 17z"/>
<path d="M290 220 c0 -6 -4 -8 -10 -5 -6 3 -7 -1 -4 -9 7 -18 13 -19 30 -8 9
5 8 11 -2 20 -9 8 -14 9 -14 2z"/>
</g>
</svg>
